<?xml version="1.0" encoding="UTF-8" ?>
<svg version="1.1" viewBox="0 0 420 330" xmlns="http://www.w3.org/2000/svg">
<rect x="180" y="0" width="30" height="30" fill="#000000" />
<rect x="210" y="0" width="30" height="30" fill="#000000" />
<rect x="0" y="30" width="30" height="30" fill="#000000" />
<rect x="30" y="30" width="30" height="30" fill="#000000" />
<rect x="150" y="30" width="30" height="30" fill="#000000" />
<rect x="180" y="30" width="30" height="30" fill="#FFFFFF" />
<rect x="210" y="30" width="30" height="30" fill="#A1887F" />
<rect x="240" y="30" width="30" height="30" fill="#000000" />
<rect x="360" y="30" width="30" height="30" fill="#000000" />
<rect x="390" y="30" width="30" height="30" fill="#000000" />
<rect x="0" y="60" width="30" height="30" fill="#000000" />
<rect x="30" y="60" width="30" height="30" fill="#795548" />
<rect x="60" y="60" width="30" height="30" fill="#000000" />
<rect x="120" y="60" width="30" height="30" fill="#000000" />
<rect x="150" y="60" width="30" height="30" fill="#A1887F" />
<rect x="180" y="60" width="30" height="30" fill="#A1887F" />
<rect x="210" y="60" width="30" height="30" fill="#A1887F" />
<rect x="240" y="60" width="30" height="30" fill="#A1887F" />
<rect x="270" y="60" width="30" height="30" fill="#000000" />
<rect x="330" y="60" width="30" height="30" fill="#000000" />
<rect x="360" y="60" width="30" height="30" fill="#795548" />
<rect x="390" y="60" width="30" height="30" fill="#000000" />
<rect x="0" y="90" width="30" height="30" fill="#000000" />
<rect x="30" y="90" width="30" height="30" fill="#795548" />
<rect x="60" y="90" width="30" height="30" fill="#FFFFFF" />
<rect x="90" y="90" width="30" height="30" fill="#000000" />
<rect x="120" y="90" width="30" height="30" fill="#FFFFFF" />
<rect x="150" y="90" width="30" height="30" fill="#A1887F" />
<rect x="180" y="90" width="30" height="30" fill="#A1887F" />
<rect x="210" y="90" width="30" height="30" fill="#A1887F" />
<rect x="240" y="90" width="30" height="30" fill="#A1887F" />
<rect x="270" y="90" width="30" height="30" fill="#A1887F" />
<rect x="300" y="90" width="30" height="30" fill="#000000" />
<rect x="330" y="90" width="30" height="30" fill="#A1887F" />
<rect x="360" y="90" width="30" height="30" fill="#795548" />
<rect x="390" y="90" width="30" height="30" fill="#000000" />
<rect x="0" y="120" width="30" height="30" fill="#000000" />
<rect x="30" y="120" width="30" height="30" fill="#795548" />
<rect x="60" y="120" width="30" height="30" fill="#FFFFFF" />
<rect x="90" y="120" width="30" height="30" fill="#FFFFFF" />
<rect x="120" y="120" width="30" height="30" fill="#A1887F" />
<rect x="150" y="120" width="30" height="30" fill="#A1887F" />
<rect x="180" y="120" width="30" height="30" fill="#000000" />
<rect x="210" y="120" width="30" height="30" fill="#000000" />
<rect x="240" y="120" width="30" height="30" fill="#A1887F" />
<rect x="270" y="120" width="30" height="30" fill="#A1887F" />
<rect x="300" y="120" width="30" height="30" fill="#A1887F" />
<rect x="330" y="120" width="30" height="30" fill="#A1887F" />
<rect x="360" y="120" width="30" height="30" fill="#795548" />
<rect x="390" y="120" width="30" height="30" fill="#000000" />
<rect x="0" y="150" width="30" height="30" fill="#000000" />
<rect x="30" y="150" width="30" height="30" fill="#795548" />
<rect x="60" y="150" width="30" height="30" fill="#FFFFFF" />
<rect x="90" y="150" width="30" height="30" fill="#FFFFFF" />
<rect x="120" y="150" width="30" height="30" fill="#A1887F" />
<rect x="150" y="150" width="30" height="30" fill="#000000" />
<rect x="180" y="150" width="30" height="30" fill="#89C0E1" />
<rect x="210" y="150" width="30" height="30" fill="#0277BD" />
<rect x="240" y="150" width="30" height="30" fill="#000000" />
<rect x="270" y="150" width="30" height="30" fill="#A1887F" />
<rect x="300" y="150" width="30" height="30" fill="#A1887F" />
<rect x="330" y="150" width="30" height="30" fill="#A1887F" />
<rect x="360" y="150" width="30" height="30" fill="#795548" />
<rect x="390" y="150" width="30" height="30" fill="#000000" />
<rect x="30" y="180" width="30" height="30" fill="#000000" />
<rect x="60" y="180" width="30" height="30" fill="#795548" />
<rect x="90" y="180" width="30" height="30" fill="#FFFFFF" />
<rect x="120" y="180" width="30" height="30" fill="#A1887F" />
<rect x="150" y="180" width="30" height="30" fill="#000000" />
<rect x="180" y="180" width="30" height="30" fill="#0277BD" />
<rect x="210" y="180" width="30" height="30" fill="#01579B" />
<rect x="240" y="180" width="30" height="30" fill="#000000" />
<rect x="270" y="180" width="30" height="30" fill="#A1887F" />
<rect x="300" y="180" width="30" height="30" fill="#A1887F" />
<rect x="330" y="180" width="30" height="30" fill="#795548" />
<rect x="360" y="180" width="30" height="30" fill="#000000" />
<rect x="30" y="210" width="30" height="30" fill="#000000" />
<rect x="60" y="210" width="30" height="30" fill="#795548" />
<rect x="90" y="210" width="30" height="30" fill="#FFFFFF" />
<rect x="120" y="210" width="30" height="30" fill="#A1887F" />
<rect x="150" y="210" width="30" height="30" fill="#795548" />
<rect x="180" y="210" width="30" height="30" fill="#000000" />
<rect x="210" y="210" width="30" height="30" fill="#000000" />
<rect x="240" y="210" width="30" height="30" fill="#795548" />
<rect x="270" y="210" width="30" height="30" fill="#A1887F" />
<rect x="300" y="210" width="30" height="30" fill="#A1887F" />
<rect x="330" y="210" width="30" height="30" fill="#795548" />
<rect x="360" y="210" width="30" height="30" fill="#000000" />
<rect x="30" y="240" width="30" height="30" fill="#000000" />
<rect x="60" y="240" width="30" height="30" fill="#795548" />
<rect x="90" y="240" width="30" height="30" fill="#FFFFFF" />
<rect x="120" y="240" width="30" height="30" fill="#A1887F" />
<rect x="150" y="240" width="30" height="30" fill="#A1887F" />
<rect x="180" y="240" width="30" height="30" fill="#795548" />
<rect x="210" y="240" width="30" height="30" fill="#795548" />
<rect x="240" y="240" width="30" height="30" fill="#A1887F" />
<rect x="270" y="240" width="30" height="30" fill="#A1887F" />
<rect x="300" y="240" width="30" height="30" fill="#A1887F" />
<rect x="330" y="240" width="30" height="30" fill="#795548" />
<rect x="360" y="240" width="30" height="30" fill="#000000" />
<rect x="60" y="270" width="30" height="30" fill="#000000" />
<rect x="90" y="270" width="30" height="30" fill="#795548" />
<rect x="120" y="270" width="30" height="30" fill="#FFFFFF" />
<rect x="150" y="270" width="30" height="30" fill="#795548" />
<rect x="180" y="270" width="30" height="30" fill="#795548" />
<rect x="210" y="270" width="30" height="30" fill="#795548" />
<rect x="240" y="270" width="30" height="30" fill="#795548" />
<rect x="270" y="270" width="30" height="30" fill="#795548" />
<rect x="300" y="270" width="30" height="30" fill="#795548" />
<rect x="330" y="270" width="30" height="30" fill="#000000" />
<rect x="60" y="300" width="30" height="30" fill="#000000" />
<rect x="90" y="300" width="30" height="30" fill="#000000" />
<rect x="120" y="300" width="30" height="30" fill="#000000" />
<rect x="150" y="300" width="30" height="30" fill="#000000" />
<rect x="180" y="300" width="30" height="30" fill="#000000" />
<rect x="210" y="300" width="30" height="30" fill="#000000" />
<rect x="240" y="300" width="30" height="30" fill="#000000" />
<rect x="270" y="300" width="30" height="30" fill="#000000" />
<rect x="300" y="300" width="30" height="30" fill="#000000" />
<rect x="330" y="300" width="30" height="30" fill="#000000" />
</svg>